<svg width="33" height="33" viewBox="0 0 53 53" fill="none" xmlns="http://www.w3.org/2000/svg">
    <path d="M18.7751 25.3958C19.3619 25.3958 19.9248 25.629 20.3397 26.0439C20.7547 26.4589 20.9878 27.0217 20.9878 27.6086C20.9878 28.1954 20.7547 28.7583 20.3397 29.1732C19.9248 29.5882 19.3619 29.8213 18.7751 29.8213C18.1879 29.8213 17.6248 29.5881 17.2097 29.1729C16.7945 28.7577 16.5612 28.1946 16.5612 27.6075C16.5612 27.0203 16.7945 26.4572 17.2097 26.0421C17.6248 25.6269 18.1879 25.3936 18.7751 25.3936M26.4998 9.61288V24.3005H42.9343L39.1315 20.4933C38.8504 20.2128 38.6795 19.8406 38.6499 19.4445C38.6203 19.0485 38.734 18.655 38.9703 18.3358L39.1315 18.1503C39.4122 17.8701 39.7841 17.7 40.1797 17.6708C40.5752 17.6416 40.9681 17.7554 41.2868 17.9913L41.4723 18.1503L48.0907 24.7709C48.3712 25.0513 48.5418 25.4231 48.5713 25.8186C48.6009 26.2142 48.4876 26.6072 48.2519 26.9262L48.0907 27.1117L41.4745 33.7433C41.179 34.0377 40.7832 34.2097 40.3664 34.2249C39.9496 34.2402 39.5423 34.0976 39.226 33.8257C38.9097 33.5537 38.7077 33.1724 38.6603 32.758C38.6129 32.3436 38.7236 31.9266 38.9703 31.5902L39.1293 31.4047L42.9122 27.613H26.502L26.4998 42.5104C26.4996 42.7521 26.4465 42.9908 26.3443 43.2098C26.242 43.4288 26.093 43.6227 25.9079 43.778C25.7227 43.9333 25.5057 44.0462 25.2723 44.1088C25.0388 44.1714 24.7945 44.1821 24.5565 44.1402L5.78567 40.8255C5.40195 40.7579 5.05433 40.5573 4.80391 40.2588C4.5535 39.9603 4.41632 39.5831 4.4165 39.1935V12.6979C4.41651 12.3054 4.55595 11.9256 4.80995 11.6263C5.06395 11.327 5.41601 11.1276 5.80334 11.0638L24.5742 7.98092C24.8113 7.94183 25.054 7.9548 25.2856 8.01893C25.5172 8.08306 25.732 8.19681 25.9152 8.35229C26.0985 8.50777 26.2456 8.70126 26.3466 8.91932C26.4475 9.13738 26.4998 9.37259 26.4998 9.61288ZM23.1873 11.565L7.729 14.1046V37.8045L23.1873 40.534V11.565ZM28.7082 40.8542H30.3975L30.6228 40.8387C31.0197 40.7842 31.3834 40.5877 31.6465 40.2856C31.9096 39.9835 32.0543 39.5963 32.0538 39.1957L32.0383 29.8103H28.7082V40.8542ZM28.7126 22.0833L28.7082 19.2677V11.0417H30.3534C30.7533 11.0416 31.1397 11.1862 31.4413 11.4489C31.7429 11.7115 31.9392 12.0744 31.9942 12.4705L32.0096 12.6935L32.0251 22.0833H28.7126Z" fill="black"/>
</svg>