<svg width="22" height="22" viewBox="0 0 22 25" fill="none" xmlns="http://www.w3.org/2000/svg">
<path d="M19.2969 25H2.57813C1.15625 25 0 23.8438 0 22.4219V10.3906C0 8.96875 1.15625 7.8125 2.57813 7.8125H19.2969C20.7188 7.8125 21.875 8.96875 21.875 10.3906V22.4063C21.875 23.8281 20.7188 24.9844 19.2969 24.9844V25ZM2.57813 9.375C2.01563 9.375 1.5625 9.82813 1.5625 10.3906V22.4063C1.5625 22.9688 2.01563 23.4219 2.57813 23.4219H19.2969C19.8594 23.4219 20.3125 22.9688 20.3125 22.4063V10.3906C20.3125 9.82813 19.8594 9.375 19.2969 9.375H2.57813Z" fill="black"/>
<path d="M18.0312 9.375H3.84375V7.09375C3.84375 3.1875 7.03125 0 10.9375 0C14.8437 0 18.0312 3.1875 18.0312 7.09375V9.375ZM5.40625 7.8125H16.4687V7.09375C16.4687 4.04687 13.9844 1.5625 10.9375 1.5625C7.89062 1.5625 5.40625 4.04687 5.40625 7.09375V7.8125Z" fill="black"/>
<path d="M17.1875 17.9688C18.0504 17.9688 18.75 17.2692 18.75 16.4062C18.75 15.5433 18.0504 14.8438 17.1875 14.8438C16.3246 14.8438 15.625 15.5433 15.625 16.4062C15.625 17.2692 16.3246 17.9688 17.1875 17.9688Z" fill="black"/>
<path d="M10.9375 17.9688C11.8004 17.9688 12.5 17.2692 12.5 16.4062C12.5 15.5433 11.8004 14.8438 10.9375 14.8438C10.0746 14.8438 9.375 15.5433 9.375 16.4062C9.375 17.2692 10.0746 17.9688 10.9375 17.9688Z" fill="black"/>
<path d="M4.6875 17.9688C5.55045 17.9688 6.25 17.2692 6.25 16.4062C6.25 15.5433 5.55045 14.8438 4.6875 14.8438C3.82456 14.8438 3.125 15.5433 3.125 16.4062C3.125 17.2692 3.82456 17.9688 4.6875 17.9688Z" fill="black"/>
</svg>
