<svg width="22" height="22" viewBox="0 0 22 22" fill="none" xmlns="http://www.w3.org/2000/svg">
<path d="M18.3563 22H3.64375C2.3925 22 1.375 20.9825 1.375 19.7313V9.14375C1.375 7.8925 2.3925 6.875 3.64375 6.875H18.3563C19.6075 6.875 20.625 7.8925 20.625 9.14375V19.7175C20.625 20.9688 19.6075 21.9862 18.3563 21.9862V22ZM3.64375 8.25C3.14875 8.25 2.75 8.64875 2.75 9.14375V19.7175C2.75 20.2125 3.14875 20.6112 3.64375 20.6112H18.3563C18.8513 20.6112 19.25 20.2125 19.25 19.7175V9.14375C19.25 8.64875 18.8513 8.25 18.3563 8.25H3.64375Z" fill="white"/>
<path d="M17.2424 8.25H4.75745V6.2425C4.75745 2.805 7.56245 0 10.9999 0C14.4374 0 17.2424 2.805 17.2424 6.2425V8.25ZM6.13245 6.875H15.8674V6.2425C15.8674 3.56125 13.6812 1.375 10.9999 1.375C8.3187 1.375 6.13245 3.56125 6.13245 6.2425V6.875Z" fill="white"/>
<path d="M16.5 15.8125C17.2594 15.8125 17.875 15.1969 17.875 14.4375C17.875 13.6781 17.2594 13.0625 16.5 13.0625C15.7406 13.0625 15.125 13.6781 15.125 14.4375C15.125 15.1969 15.7406 15.8125 16.5 15.8125Z" fill="white"/>
<path d="M11 15.8125C11.7594 15.8125 12.375 15.1969 12.375 14.4375C12.375 13.6781 11.7594 13.0625 11 13.0625C10.2406 13.0625 9.625 13.6781 9.625 14.4375C9.625 15.1969 10.2406 15.8125 11 15.8125Z" fill="white"/>
<path d="M5.5 15.8125C6.25939 15.8125 6.875 15.1969 6.875 14.4375C6.875 13.6781 6.25939 13.0625 5.5 13.0625C4.74061 13.0625 4.125 13.6781 4.125 14.4375C4.125 15.1969 4.74061 15.8125 5.5 15.8125Z" fill="white"/>
</svg>
